<?xml version="1.0" encoding="UTF-8" standalone="no"?>
<!DOCTYPE svg PUBLIC "-//W3C//DTD SVG 1.1//EN"
 "http://www.w3.org/Graphics/SVG/1.1/DTD/svg11.dtd">
<!-- Generated by graphviz version 2.43.0 (0)
 -->
<!-- Title: MarkovChain Pages: 1 -->
<svg width="297pt" height="152pt"
 viewBox="0.00 0.00 297.13 151.71" xmlns="http://www.w3.org/2000/svg" xmlns:xlink="http://www.w3.org/1999/xlink">
<g id="graph0" class="graph" transform="scale(1 1) rotate(0) translate(4 147.71)">
<title>MarkovChain</title>
<polygon fill="white" stroke="transparent" points="-4,4 -4,-147.71 293.13,-147.71 293.13,4 -4,4"/>
<!-- como -->
<g id="node1" class="node">
<title>como</title>
<ellipse fill="none" stroke="black" cx="30.78" cy="-30.78" rx="30.56" ry="30.56"/>
<text text-anchor="middle" x="30.78" y="-27.68" font-family="Times,serif" font-size="12.00">como</text>
</g>
<!-- como&#45;&gt;como -->
<g id="edge1" class="edge">
<title>como&#45;&gt;como</title>
<path fill="none" stroke="black" d="M19.55,-59.82C19.19,-70.65 22.93,-79.56 30.78,-79.56 35.93,-79.56 39.31,-75.72 40.93,-70.02"/>
<polygon fill="black" stroke="black" points="44.43,-70.14 42,-59.82 37.47,-69.4 44.43,-70.14"/>
<text text-anchor="middle" x="30.78" y="-83.36" font-family="Times,serif" font-size="14.00">0.1</text>
</g>
<!-- estas -->
<g id="node2" class="node">
<title>estas</title>
<ellipse fill="none" stroke="black" cx="149.49" cy="-81.78" rx="28.87" ry="28.87"/>
<text text-anchor="middle" x="149.49" y="-78.68" font-family="Times,serif" font-size="12.00">estas</text>
</g>
<!-- como&#45;&gt;estas -->
<g id="edge2" class="edge">
<title>como&#45;&gt;estas</title>
<path fill="none" stroke="black" d="M55.59,-49.64C62.96,-54.8 71.31,-60 79.56,-63.78 89.44,-68.31 100.67,-71.85 111.14,-74.55"/>
<polygon fill="black" stroke="black" points="110.35,-77.96 120.89,-76.88 111.98,-71.15 110.35,-77.96"/>
<text text-anchor="middle" x="91.06" y="-75.58" font-family="Times,serif" font-size="14.00">0.6</text>
</g>
<!-- bien -->
<g id="node3" class="node">
<title>bien</title>
<ellipse fill="none" stroke="black" cx="263.28" cy="-30.78" rx="25.71" ry="25.71"/>
<text text-anchor="middle" x="263.28" y="-27.68" font-family="Times,serif" font-size="12.00">bien</text>
</g>
<!-- como&#45;&gt;bien -->
<g id="edge3" class="edge">
<title>como&#45;&gt;bien</title>
<path fill="none" stroke="black" d="M61.78,-29.94C78.98,-29.49 100.98,-29 120.56,-28.78 146.27,-28.49 152.71,-28.47 178.42,-28.78 194.36,-28.97 211.99,-29.36 226.96,-29.75"/>
<polygon fill="black" stroke="black" points="227.24,-33.26 237.33,-30.03 227.43,-26.26 227.24,-33.26"/>
<text text-anchor="middle" x="149.49" y="-32.58" font-family="Times,serif" font-size="14.00">0.3</text>
</g>
<!-- estas&#45;&gt;como -->
<g id="edge4" class="edge">
<title>estas&#45;&gt;como</title>
<path fill="none" stroke="black" d="M127.99,-61.74C120.51,-55.44 111.65,-49.02 102.56,-44.78 93.02,-40.33 82.13,-37.29 71.79,-35.22"/>
<polygon fill="black" stroke="black" points="72.16,-31.73 61.7,-33.45 70.95,-38.63 72.16,-31.73"/>
<text text-anchor="middle" x="91.06" y="-48.58" font-family="Times,serif" font-size="14.00">0.2</text>
</g>
<!-- estas&#45;&gt;estas -->
<g id="edge5" class="edge">
<title>estas&#45;&gt;estas</title>
<path fill="none" stroke="black" d="M138.68,-108.79C138.07,-119.62 141.67,-128.71 149.49,-128.71 154.62,-128.71 157.94,-124.8 159.44,-119.04"/>
<polygon fill="black" stroke="black" points="162.95,-119.05 160.3,-108.79 155.97,-118.46 162.95,-119.05"/>
<text text-anchor="middle" x="149.49" y="-132.51" font-family="Times,serif" font-size="14.00">0.5</text>
</g>
<!-- estas&#45;&gt;bien -->
<g id="edge6" class="edge">
<title>estas&#45;&gt;bien</title>
<path fill="none" stroke="black" d="M178.23,-77.18C191.18,-74.38 206.54,-70.1 219.42,-63.78 224.83,-61.13 230.21,-57.74 235.24,-54.15"/>
<polygon fill="black" stroke="black" points="237.48,-56.84 243.33,-48 233.25,-51.27 237.48,-56.84"/>
<text text-anchor="middle" x="207.92" y="-75.58" font-family="Times,serif" font-size="14.00">0.3</text>
</g>
<!-- bien&#45;&gt;como -->
<g id="edge7" class="edge">
<title>bien&#45;&gt;como</title>
<path fill="none" stroke="black" d="M238.38,-22.76C221.78,-17.62 199.02,-11.44 178.42,-8.78 152.92,-5.49 146.09,-5.66 120.56,-8.78 103.75,-10.83 85.54,-14.99 70.01,-19.15"/>
<polygon fill="black" stroke="black" points="68.94,-15.81 60.24,-21.85 70.81,-22.56 68.94,-15.81"/>
<text text-anchor="middle" x="149.49" y="-12.58" font-family="Times,serif" font-size="14.00">0.4</text>
</g>
<!-- bien&#45;&gt;estas -->
<g id="edge8" class="edge">
<title>bien&#45;&gt;estas</title>
<path fill="none" stroke="black" d="M237.31,-33.29C224.61,-35.25 209.2,-38.71 196.42,-44.78 190.48,-47.61 184.62,-51.35 179.18,-55.37"/>
<polygon fill="black" stroke="black" points="176.7,-52.87 171.03,-61.82 181.04,-58.36 176.7,-52.87"/>
<text text-anchor="middle" x="207.92" y="-48.58" font-family="Times,serif" font-size="14.00">0.1</text>
</g>
<!-- bien&#45;&gt;bien -->
<g id="edge9" class="edge">
<title>bien&#45;&gt;bien</title>
<path fill="none" stroke="black" d="M253.31,-54.69C252.36,-65.38 255.68,-74.63 263.28,-74.63 268.26,-74.63 271.41,-70.65 272.71,-64.89"/>
<polygon fill="black" stroke="black" points="276.22,-64.86 273.25,-54.69 269.23,-64.49 276.22,-64.86"/>
<text text-anchor="middle" x="263.28" y="-78.43" font-family="Times,serif" font-size="14.00">0.5</text>
</g>
</g>
</svg>